<svg id="Capa_1" enable-background="new 0 0 512 512" height="512" viewBox="0 0 512 512" width="512" xmlns="http://www.w3.org/2000/svg" xmlns:xlink="http://www.w3.org/1999/xlink"><linearGradient id="SVGID_1_" gradientUnits="userSpaceOnUse" x1="256" x2="256" y1="512" y2="0"><stop offset="0" stop-color="#addcff"/><stop offset=".5028" stop-color="#eaf6ff"/><stop offset="1" stop-color="#eaf6ff"/></linearGradient><linearGradient id="SVGID_2_" gradientUnits="userSpaceOnUse" x1="256" x2="256" y1="407" y2="105"><stop offset="0" stop-color="#00c0ff"/><stop offset="1" stop-color="#5558ff"/></linearGradient><g><g><circle cx="256" cy="256" fill="url(#SVGID_1_)" r="256"/></g><g><g><path d="m260.243 105h-121.056c-15.548 0-28.775 9.886-33.677 23.686-.966 2.719-.545 5.735 1.129 8.089s4.392 3.754 7.29 3.754h132.383c0-13.698 5.366-26.078 13.931-35.529zm137.852 248.706h-44.658v26.58c0 14.754 11.96 26.714 26.714 26.714h.135c14.754 0 26.714-11.96 26.714-26.714v-17.675c0-4.918-3.987-8.905-8.905-8.905zm-62.512-115.471c0-3.366-1.918-6.436-4.934-7.946l-19.737-9.819 19.737-9.819c3.016-1.509 4.934-4.58 4.934-7.946v-62.176c0-19.595-16.023-35.529-35.708-35.529-20.192 0-35.708 16.942-35.708 35.529v17.765h-124.98v35.529c0 3.366 1.918 6.436 4.934 7.946l8.805 4.38-12.24 18.276c-.976 1.457-1.499 3.175-1.499 4.927v79.941c0 2.359.941 4.615 2.615 6.28l11.542 11.485-11.542 11.485c-1.674 1.665-2.615 3.921-2.615 6.28v26.647c0 19.595 16.023 35.529 35.708 35.529h169.841c-5.663-7.446-9.153-16.611-9.153-26.647 0-17.134 0-124.931 0-142.117zm-133.906-26.647h35.708c4.934 0 8.927 3.973 8.927 8.882 0 4.91-3.993 8.882-8.927 8.882h-35.708c-4.934 0-8.927-3.973-8.927-8.882s3.992-8.882 8.927-8.882zm89.271 124.353h-89.271c-4.934 0-8.927-3.973-8.927-8.882 0-4.91 3.993-8.882 8.927-8.882h89.271c4.934 0 8.927 3.973 8.927 8.882s-3.993 8.882-8.927 8.882zm0-35.529h-89.271c-4.934 0-8.927-3.973-8.927-8.882 0-4.91 3.993-8.882 8.927-8.882h89.271c4.934 0 8.927 3.973 8.927 8.882s-3.993 8.882-8.927 8.882zm0-35.53h-89.271c-4.934 0-8.927-3.973-8.927-8.882 0-4.91 3.993-8.882 8.927-8.882h89.271c4.934 0 8.927 3.973 8.927 8.882 0 4.91-3.993 8.882-8.927 8.882z" fill="url(#SVGID_2_)"/></g></g></g></svg>