<svg id="Capa_1" enable-background="new 0 0 512 512" height="512" viewBox="0 0 512 512" width="512" xmlns="http://www.w3.org/2000/svg" xmlns:xlink="http://www.w3.org/1999/xlink"><linearGradient id="SVGID_1_" gradientUnits="userSpaceOnUse" x1="256" x2="256" y1="512" y2="0"><stop offset="0" stop-color="#ffedad"/><stop offset="1" stop-color="#ffffe5"/></linearGradient><linearGradient id="SVGID_2_" gradientUnits="userSpaceOnUse" x1="256" x2="256" y1="400.485" y2="93.89"><stop offset="0" stop-color="#feba00"/><stop offset="1" stop-color="#fd5900"/></linearGradient><g><circle cx="256" cy="256" fill="url(#SVGID_1_)" r="256"/><g fill="url(#SVGID_2_)"><path d="m363.93 102.5h-215.86c-4.971 0-8.994 4.023-8.994 8.994s4.023 8.988 8.994 8.988l17.812.006c-5.257 8.885-7.996 17.982-7.509 27.237 1.528 28.678 29.969 52.246 55.063 72.518 15.74 12.701 33.57 27.105 33.57 35.757s-17.83 23.056-33.57 35.757c-16.765 13.544-34.84 28.94-45.57 45.79h176.533c-10.774-16.845-28.904-32.236-45.712-45.772-15.792-12.718-33.693-27.123-33.693-35.775s17.9-23.056 33.693-35.775c25.173-20.272 53.719-43.849 55.265-72.544.493-9.24-2.239-18.32-7.482-27.193h17.46c4.971 0 8.994-4.023 8.994-8.994s-4.023-8.994-8.994-8.994z"/><path d="m139.076 400.506c0 4.971 4.023 8.994 8.994 8.994h215.86c4.971 0 8.994-4.023 8.994-8.994s-4.023-8.994-8.994-8.994h-17.46c5.244-8.873 7.975-17.953 7.482-27.193-.161-3.001-.776-5.903-1.494-8.783h-192.606c-.708 2.866-1.32 5.754-1.479 8.739-.487 9.255 2.252 18.352 7.509 27.237h-17.812c-4.971 0-8.994 4.022-8.994 8.994z"/></g></g></svg>