<svg id="Capa_1" enable-background="new 0 0 512 512" height="512" viewBox="0 0 512 512" width="512" xmlns="http://www.w3.org/2000/svg" xmlns:xlink="http://www.w3.org/1999/xlink"><linearGradient id="SVGID_1_" gradientUnits="userSpaceOnUse" x1="256" x2="256" y1="512" y2="0"><stop offset="0" stop-color="#ffe59a"/><stop offset="1" stop-color="#ffffd5"/></linearGradient><linearGradient id="SVGID_2_" gradientUnits="userSpaceOnUse" x1="256" x2="256" y1="105" y2="407"><stop offset="0" stop-color="#fd5900"/><stop offset="1" stop-color="#ffde00"/></linearGradient><g><circle cx="256" cy="256" fill="url(#SVGID_1_)" r="256"/><g><g><path d="m211.588 184.941c0-24.487 19.925-44.412 44.412-44.412s44.412 19.925 44.412 44.412v26.647h35.529v-26.647c0-44.15-35.791-79.941-79.941-79.941s-79.941 35.791-79.941 79.941v26.647h35.529zm44.412 124.353c-4.901 0-8.882 3.981-8.882 8.882s3.981 8.882 8.882 8.882 8.882-3.981 8.882-8.882c0-4.9-3.981-8.882-8.882-8.882zm71.059-79.941h-142.118c-14.694 0-26.647 11.953-26.647 26.647v142.118c0 4.91 3.973 8.882 8.882 8.882h177.647c4.91 0 8.882-3.973 8.882-8.882v-142.118c.001-14.694-11.952-26.647-26.646-26.647zm-35.53 115.47c-6.849 0-13.039-2.669-17.765-6.931-4.725 4.261-10.915 6.931-17.765 6.931-14.694 0-26.647-11.953-26.647-26.647s11.953-26.647 26.647-26.647 26.647 11.953 26.647 26.647c0 4.901 3.981 8.882 8.882 8.882s8.882-3.981 8.882-8.882c0-24.487-19.925-44.412-44.412-44.412-26.683 0-48.857 24.027-43.657 52.722 3.14 17.383 17.426 31.869 34.723 35.234 11.216 2.16 22.215.286 31.756-5.465 4.198-2.55 9.654-1.197 12.196 3.019 2.533 4.207 1.18 9.663-3.019 12.196-12.842 7.743-28.541 10.746-44.316 7.685-24.713-4.797-44.334-24.695-48.827-49.512-6.982-38.676 22.496-73.643 61.146-73.643 34.28 0 62.176 27.896 62.176 62.176 0 14.694-11.953 26.647-26.647 26.647z" fill="url(#SVGID_2_)"/></g></g></g></svg>