<svg id="Capa_1" enable-background="new 0 0 512 512" height="512" viewBox="0 0 512 512" width="512" xmlns="http://www.w3.org/2000/svg" xmlns:xlink="http://www.w3.org/1999/xlink"><linearGradient id="SVGID_1_" gradientUnits="userSpaceOnUse" x1="256" x2="256" y1="512" y2="0"><stop offset="0" stop-color="#addcff"/><stop offset=".5028" stop-color="#eaf6ff"/><stop offset="1" stop-color="#eaf6ff"/></linearGradient><linearGradient id="SVGID_2_" gradientUnits="userSpaceOnUse" x1="256" x2="256" y1="380.5" y2="131.5"><stop offset="0" stop-color="#00c0ff"/><stop offset="1" stop-color="#5558ff"/></linearGradient><g><circle cx="256" cy="256" fill="url(#SVGID_1_)" r="256"/></g><g><g><path d="m158.294 220.429h-53.294v106.714h53.294zm133.235-17.786c-34.28 0-62.176 27.929-62.176 62.25s27.896 62.25 62.176 62.25 62.176-27.929 62.176-62.25-27.895-62.25-62.176-62.25zm0 106.714c-24.496 0-44.412-19.948-44.412-44.464s19.916-44.464 44.412-44.464 44.412 19.948 44.412 44.464-19.916 44.464-44.412 44.464zm0-71.143c-14.694 0-26.647 11.967-26.647 26.679s11.953 26.679 26.647 26.679 26.647-11.967 26.647-26.679-11.953-26.679-26.647-26.679zm106.589-71.143h-30.048l-15.301-30.656c-1.509-3.013-4.58-4.915-7.945-4.915h-106.589c-3.366 0-6.436 1.902-7.946 4.915l-15.301 30.656h-56.694v-8.893c0-4.915-3.973-8.893-8.882-8.893-4.91 0-8.882 3.977-8.882 8.893v8.893h-26.647c-4.91 0-8.882 3.977-8.882 8.893v26.679h62.176c4.91 0 8.882 3.977 8.882 8.893v124.5c0 4.915-3.973 8.893-8.882 8.893h-62.177v26.679c0 4.915 3.973 8.893 8.882 8.893h284.235c4.91 0 8.882-3.978 8.882-8.893v-195.644c.001-4.915-3.972-8.893-8.881-8.893zm-106.589 177.858c-44.082 0-79.941-35.901-79.941-80.036s35.859-80.036 79.941-80.036 79.941 35.901 79.941 80.036-35.858 80.036-79.941 80.036z" fill="url(#SVGID_2_)"/></g></g></svg>