<svg id="Capa_1" enable-background="new 0 0 512 512" height="512" viewBox="0 0 512 512" width="512" xmlns="http://www.w3.org/2000/svg" xmlns:xlink="http://www.w3.org/1999/xlink"><linearGradient id="SVGID_1_" gradientUnits="userSpaceOnUse" x1="256" x2="256" y1="512" y2="0"><stop offset="0" stop-color="#addcff"/><stop offset=".5028" stop-color="#eaf6ff"/><stop offset="1" stop-color="#eaf6ff"/></linearGradient><linearGradient id="SVGID_2_" gradientUnits="userSpaceOnUse" x1="256" x2="256" y1="407" y2="105"><stop offset="0" stop-color="#00c0ff"/><stop offset="1" stop-color="#5558ff"/></linearGradient><g><circle cx="256" cy="256" fill="url(#SVGID_1_)" r="256"/></g><g><g><path d="m193.808 353.706h124.385v-195.412h-124.385zm62.192-159.883h35.538c4.911 0 8.885 3.973 8.885 8.882 0 4.91-3.974 8.882-8.885 8.882h-35.538c-4.911 0-8.885-3.973-8.885-8.882s3.974-8.882 8.885-8.882zm0 35.53h35.538c4.911 0 8.885 3.973 8.885 8.882s-3.974 8.882-8.885 8.882h-35.538c-4.911 0-8.885-3.973-8.885-8.882s3.974-8.882 8.885-8.882zm0 35.529h35.538c4.911 0 8.885 3.973 8.885 8.882s-3.974 8.882-8.885 8.882h-35.538c-4.911 0-8.885-3.973-8.885-8.882s3.974-8.882 8.885-8.882zm0 35.53h35.538c4.911 0 8.885 3.973 8.885 8.882 0 4.91-3.974 8.882-8.885 8.882h-35.538c-4.911 0-8.885-3.973-8.885-8.882s3.974-8.882 8.885-8.882zm-35.538-106.589c4.906 0 8.885 3.976 8.885 8.882 0 4.905-3.978 8.882-8.885 8.882s-8.885-3.977-8.885-8.882 3.978-8.882 8.885-8.882zm0 35.53c4.906 0 8.885 3.976 8.885 8.882 0 4.905-3.978 8.882-8.885 8.882s-8.885-3.977-8.885-8.882c0-4.906 3.978-8.882 8.885-8.882zm0 35.529c4.906 0 8.885 3.976 8.885 8.882 0 4.905-3.978 8.882-8.885 8.882s-8.885-3.977-8.885-8.882c0-4.906 3.978-8.882 8.885-8.882zm0 35.53c4.906 0 8.885 3.976 8.885 8.882 0 4.905-3.978 8.882-8.885 8.882s-8.885-3.977-8.885-8.882c0-4.906 3.978-8.882 8.885-8.882zm142.153-195.412h-62.192v35.529h26.654c4.911 0 8.885 3.973 8.885 8.882v213.177c0 4.91-3.974 8.882-8.885 8.882h-142.154c-4.911 0-8.885-3.973-8.885-8.882v-213.176c0-4.909 3.974-8.882 8.885-8.882h26.654v-35.53h-62.192c-4.911 0-8.885 3.973-8.885 8.882v284.235c0 4.91 3.974 8.882 8.885 8.882h213.231c4.911 0 8.885-3.973 8.885-8.882v-284.235c-.001-4.909-3.975-8.882-8.886-8.882zm-79.961 0h-53.308v35.529h53.308z" fill="url(#SVGID_2_)"/></g></g></svg>